<svg width="152.000000" height="177.000000" viewBox="0 0 152 177" fill="none" xmlns="http://www.w3.org/2000/svg" xmlns:xlink="http://www.w3.org/1999/xlink">
	<desc>
			Created with Pixso.
	</desc>
	<defs/>
	<rect id="组件 2" width="144.000000" height="173.000000" transform="translate(4.000000 0.000000)" fill="#FFFFFF" fill-opacity="0"/>
	<rect id="矩形 1" x="4.000000" y="29.000000" width="144.000000" height="144.000000" fill="#414549" fill-opacity="1.000000"/>
	<rect id="矩形 1" x="2.000000" y="27.000000" width="148.000000" height="148.000000" stroke="#FFFFFF" stroke-opacity="1.000000" stroke-width="4.000000"/>
	<path id="菇" d="M134.32 61.2L134.32 57.44L102.05 57.44L102.05 43.91L91.85 41.48L91.85 57.44L63.9 57.44L63.9 43.91L53.67 41.48L53.67 57.44L18.27 57.44L18.27 61.2L53.67 61.2L53.67 75.3L56.83 74.32Q59.06 73.6 60.68 72.18Q61.36 71.59 61.93 70.87Q63.31 69.15 63.72 67.22Q63.9 66.39 63.9 65.53L63.9 61.2L91.85 61.2L91.85 74.14L95.01 73.3Q97.44 72.51 99.15 70.94Q99.66 70.47 100.11 69.92Q101.15 68.64 101.63 67.17Q102.05 65.9 102.05 64.51L102.05 61.2L134.32 61.2ZM65.55 92.46Q64.8 91.91 63.9 91.58L58.87 89.85Q58.87 91.58 58.56 94.04L45.9 94.04Q48.92 84.09 51.39 73.16L42.14 68.83Q40.42 81.07 37.67 94.04L18.27 94.04L18.27 97.76L36.83 97.76Q31.94 119.81 26.6 129.9Q30.05 130.6 34.51 132.39Q38.98 134.19 43.44 137.21Q36.9 146.94 28.14 153.85Q22.63 158.2 16.23 161.43L17.67 163.02Q24.74 160.41 32.93 154.79Q41.16 149.16 48.36 140.83Q55.99 146.88 62.04 156.37L64.78 152.78Q65.45 151.94 65.88 150.99Q66.64 149.32 66.64 147.3Q66.64 145.38 65.91 143.8Q65.04 141.94 63.16 140.55Q58.28 137.07 53.25 134.5Q63.9 119.21 68.23 99.21Q68.37 98.78 68.37 97.91Q68.37 97.36 68.28 96.83Q68.03 95.42 67.14 94.11Q66.46 93.12 65.55 92.46ZM133.58 93.02L105.95 93.02L105.95 77.9L96.46 75.3L96.46 93.02L73.85 93.02L73.85 96.92L96.46 96.92L96.46 116.36L86.37 116.36L76.28 113.9L76.28 162.42L79.44 161.43Q82.09 160.46 83.83 158.62Q84.17 158.27 84.47 157.88Q85.62 156.45 86.08 154.82Q86.37 153.77 86.37 152.64L116.46 152.64L116.46 160.69L119.77 159.67Q122.35 158.75 124.07 156.99Q124.45 156.6 124.79 156.16Q125.95 154.73 126.4 153.1Q126.69 152.05 126.69 150.92L126.69 114.04L117.02 116.36L105.95 116.36L105.95 96.92L133.58 96.92L133.58 93.02ZM46.92 131.62Q40.42 129.16 34.65 128Q40.14 113.76 44.88 97.76L58.14 97.76Q55.11 116.78 46.92 131.62ZM116.46 119.95L116.46 148.88L86.37 148.88L86.37 119.95L116.46 119.95Z" fill="#FFFFFF" fill-opacity="1.000000" fill-rule="evenodd"/>
</svg>
