<?xml version="1.0" standalone="no"?><!DOCTYPE svg PUBLIC "-//W3C//DTD SVG 1.1//EN" "http://www.w3.org/Graphics/SVG/1.1/DTD/svg11.dtd"><svg t="1671844723167" class="icon" viewBox="0 0 1024 1024" version="1.1" xmlns="http://www.w3.org/2000/svg" p-id="3325" xmlns:xlink="http://www.w3.org/1999/xlink" width="200" height="200"><path d="M874.012 126.452H250.548a100.564 100.564 0 0 0-100.56 100.564v569.968a100.564 100.564 0 0 0 100.56 100.564h623.464V126.452z" fill="#2E85FF" p-id="3326"></path><path d="M874.012 706.188H245.66c-52.84 0-95.672 42.836-95.672 95.672v0.016c0 52.84 42.832 95.672 95.672 95.672h628.352v-191.36z" fill="#1A9BFD" p-id="3327"></path><path d="M874.012 738.188H253.66a63.66 63.66 0 0 0-63.672 63.672v0.016a63.672 63.672 0 0 0 63.672 63.672h620.352v-127.36z" fill="#F1F5FE" p-id="3328"></path><path d="M829.088 738.188h44.924v127.36h-44.924z" fill="#447BF8" p-id="3329"></path><path d="M874.012 758.188H265.66a63.66 63.66 0 0 0-63.672 63.672v0.016c0 7.656 1.376 15.168 3.996 22.204a63.656 63.656 0 0 1-15.996-42.204v-0.016a63.672 63.672 0 0 1 63.672-63.672h620.352v20z" fill="#080605" fill-opacity=".1" p-id="3330"></path><path d="M874.012 126.976H294.32a48.328 48.328 0 0 0-48.332 48.332V658a48.32 48.32 0 0 0 48.332 48.336h579.692V126.976z" fill="#00BBFE" p-id="3331"></path><path d="M653.088 146.976h136v280.14a9.908 9.908 0 0 1-14.144 8.964l-49.436-23.332a9.92 9.92 0 0 0-8.444-0.008l-49.848 23.388a9.904 9.904 0 0 1-9.528-0.608 9.904 9.904 0 0 1-4.6-8.368V146.976z" fill="#00A4F4" p-id="3332"></path><path d="M653.088 126.976h136v280.14a9.908 9.908 0 0 1-14.144 8.964l-49.436-23.332a9.92 9.92 0 0 0-8.444-0.008l-49.848 23.388a9.904 9.904 0 0 1-9.528-0.608 9.904 9.904 0 0 1-4.6-8.368V126.976z" fill="#FF4B7F" p-id="3333"></path></svg>